<svg width="1384" height="734" viewBox="0 0 1384 734" fill="none" xmlns="http://www.w3.org/2000/svg">
<path opacity="0.2" d="M687.611 899.774L679.425 865.563C675.553 849.483 654.425 845.712 645.299 859.519L607.024 917.351C606.084 918.737 604.757 919.791 603.208 920.179C600.94 920.789 598.341 921.066 596.405 921.066C572.29 921.066 560.232 906.483 560.232 890.182C560.232 869.777 569.027 855.249 601.327 837.173L642.423 813.885C680.254 792.316 700 763.206 700 727.11C700 699.774 688.219 677.207 669.137 660.628C652.378 642.94 627.765 630.963 599.889 630.963C548.894 630.963 511.117 657.744 488.385 696.89C484.624 548.845 388.053 469 224.281 469H7.85398C3.53982 469 0 472.77 0 477.373V504.487C0 529.771 20.4646 550.286 45.6858 550.286H47.2345C52.3783 550.286 56.5265 554.445 56.5265 559.602V875.71C56.5265 880.866 52.3783 885.025 47.2345 885.025C24.281 885.025 5.6969 903.655 5.6969 926.666V949.622C5.6969 952.616 7.9646 955 10.7854 955H215.985C337.887 955 426.493 907.869 465.874 820.761C471.405 850.148 485.841 875.71 502.655 894.285C502.655 894.285 502.655 894.229 502.71 894.174C522.622 918.127 556.305 932.1 600.166 932.1H672.013C682.854 932.1 691.095 922.508 689.657 911.695C689.104 907.537 688.385 903.323 687.555 899.663L687.611 899.774ZM206.471 944.299H204.148C199.779 944.299 196.294 940.584 196.294 935.926V488.185C196.294 483.583 199.834 479.812 204.148 479.812H212.168C295.409 479.812 342.423 558.77 342.423 706.649C342.423 854.529 288.44 944.299 206.471 944.299ZM553.872 660.184C577.434 660.184 618.695 694.284 618.695 762.707C618.695 790.431 601.881 809.117 575.055 787.159C550.442 767.087 531.416 725.335 531.416 694.506C531.416 672.937 539.657 660.129 553.872 660.129V660.184Z" fill="black"/>
<g opacity="0.2">
<path d="M1275.62 512.26C1289.17 503.793 1301.65 495.961 1315.84 487.176C1316.68 504.957 1317.53 520.939 1318.17 536.814C1318.91 552.584 1319.44 568.354 1320.18 584.124C1320.18 586.135 1320.49 588.358 1321.34 590.263C1333.09 615.241 1335.52 641.806 1333.62 668.795C1331.92 693.985 1328.64 718.963 1320.28 742.988C1314.46 759.499 1306.84 774.846 1290.01 783.313C1288.32 784.16 1287.26 787.864 1287.26 790.192C1288.42 842.583 1290.01 894.973 1290.96 947.363C1291.49 973.929 1290.96 1000.49 1290.96 1027.17C1281.33 1030.02 1280.91 1030.02 1282.07 1041.45C1285.14 1071.19 1287.47 1101.15 1292.55 1130.57C1295.73 1149.09 1300.91 1168.14 1315.31 1182.11C1318.69 1185.39 1324.2 1187.62 1328.96 1188.15C1337 1189.1 1345.26 1188.68 1353.41 1188.36C1359.02 1188.15 1360.82 1190.47 1360.61 1195.87C1360.29 1205.61 1360.61 1215.35 1360.5 1225.08C1360.4 1230.16 1362.19 1232.28 1367.38 1232.07C1372.88 1231.86 1378.49 1232.39 1384 1231.96C1391.3 1231.33 1394.16 1233.66 1393.95 1241.59C1393.42 1267.63 1394.05 1293.77 1393.63 1319.81C1393.52 1327.54 1395.96 1329.65 1403.47 1329.44C1423.47 1328.91 1443.48 1329.44 1463.48 1329.12C1470.04 1329.12 1472.16 1331.24 1471.95 1337.8C1471.53 1353.36 1471.53 1368.92 1471.95 1384.37C1472.16 1390.72 1469.83 1392.63 1463.8 1392.52C1444.54 1392.31 1425.38 1392.52 1406.12 1392.52C1403.05 1392.52 1399.98 1392.84 1396.49 1393.05V1595.84C1401.14 1595.84 1405.27 1595.84 1409.4 1595.84C1427.6 1595.84 1445.7 1596.05 1463.91 1595.84C1470.04 1595.84 1472.05 1597.74 1471.95 1603.99C1471.53 1619.76 1471.53 1635.63 1471.95 1651.4C1472.05 1657.44 1469.73 1659.87 1464.12 1658.92C1455.44 1657.54 1454.38 1662.2 1454.38 1669.4C1454.59 1735.23 1454.49 1801.06 1454.49 1866.89C1454.49 1874.51 1450.82 1878.32 1443.48 1878.32C1245.45 1878.32 1047.32 1878.32 849.3 1878.32C846.23 1878.32 843.055 1878.32 839.245 1878.32C839.033 1873.98 838.61 1870.38 838.61 1866.78C838.61 1801.16 838.61 1735.65 838.61 1670.03C838.61 1659.66 839.774 1658.49 828.238 1658.6C826.121 1658.6 822.205 1655.64 822.205 1654.05C821.781 1635.1 821.887 1616.16 821.887 1596.37C825.697 1596.15 828.978 1595.73 832.259 1595.73C851.522 1595.73 870.679 1595.52 889.942 1595.73C895.657 1595.73 897.562 1594.04 897.562 1588.01C897.35 1526.09 897.245 1464.17 897.562 1402.36C897.562 1394.43 895.657 1391.89 887.507 1392.1C869.091 1392.63 850.675 1392.31 832.154 1392.31C829.084 1392.31 825.909 1392.31 821.676 1392.31C821.676 1384.16 821.676 1376.86 821.676 1369.66C821.676 1359.08 822.205 1348.6 821.464 1338.12C820.935 1330.39 824.11 1328.91 830.989 1329.02C850.464 1329.34 869.938 1329.12 889.412 1329.02C892.482 1329.02 895.551 1328.7 899.361 1328.49C899.361 1313.14 899.361 1298.43 899.361 1283.72C899.361 1269.22 899.679 1254.72 899.255 1240.22C899.044 1233.45 901.69 1231.33 908.04 1231.75C913.861 1232.07 919.682 1231.65 925.398 1231.86C930.795 1232.07 932.912 1230.16 932.7 1224.55C932.383 1214.82 932.806 1205.08 932.489 1195.34C932.277 1189.73 934.5 1187.93 939.898 1188.15C949.106 1188.46 958.313 1187.93 967.521 1188.36C973.237 1188.57 976.729 1186.88 980.434 1182.01C994.299 1163.7 999.167 1142.32 1001.5 1120.41C1010.81 1033.52 1004.25 946.199 1005.73 859.199C1006.47 816.864 1005.41 774.422 1004.25 732.087C1003.93 719.069 999.802 706.262 998.426 693.244C995.78 668.795 996.627 644.558 1000.86 620.215C1005.2 594.92 1013.24 571.106 1024.78 548.351C1026.26 545.387 1026.26 540.519 1024.78 537.449C1017.69 522.844 1015.25 507.709 1017.05 491.515C1017.58 487.176 1016.52 482.096 1014.62 478.074C1007 461.881 1005.84 445.264 1009.86 428.118C1011.34 421.768 1014.2 415.735 1015.47 409.384C1016.31 404.939 1016.31 399.859 1015.15 395.52C1004.78 358.158 993.981 321.009 983.291 283.754C982.551 281.108 982.127 278.356 981.386 274.969C972.178 284.389 961.594 279.203 951.857 279.626C951.116 279.626 949.635 276.98 949.423 275.393C944.554 245.652 939.792 215.805 934.923 185.959C933.336 176.116 931.96 166.167 929.949 156.43C929.525 154.419 926.456 151.667 924.445 151.455C919.365 151.032 918.412 148.598 918.412 144.258C918.518 130.923 918.201 117.481 918.518 104.145C918.73 93.879 920.635 92.6089 930.372 94.4082C934.711 95.2549 936.828 94.8316 935.664 89.4338C931.007 67.631 935.452 48.6858 953.022 33.6567C956.62 30.5874 959.054 25.8247 961.7 21.697C962.759 20.1094 963.923 17.04 963.182 15.9817C957.996 8.67878 963.182 6.56201 968.474 4.12771C971.014 2.96349 973.343 1.3759 975.671 0C984.456 10.0547 985.937 19.1568 979.693 29.7407C975.777 36.4085 970.273 42.1238 966.04 48.6858C961.383 55.777 956.514 62.8682 953.339 70.5945C949.211 80.8608 953.868 88.3754 965.299 92.2914C957.784 61.1748 965.193 44.664 993.664 29.529C994.51 30.3757 995.569 31.2224 996.204 32.2808C1003.61 44.3465 1003.4 44.1348 992.499 53.5544C988.689 56.8354 984.879 61.1748 983.08 65.7259C977.576 79.6966 987.313 92.1856 1003.82 93.3498C1012.15 93.9143 1016.31 98.4654 1016.31 107.003C1016.31 121.185 1016.31 135.368 1016.31 150.185C1008.59 150.503 1007.85 155.266 1005.94 161.616C1001.18 177.492 1005.73 191.039 1011.66 205.116C1021.61 228.929 1030.71 253.272 1040.55 277.192C1042.03 280.896 1045.74 284.495 1049.23 286.294C1059.92 291.692 1071.14 296.243 1082.14 300.9C1083.84 301.641 1086.06 301.217 1087.97 301.323C1087.65 299.206 1087.97 296.772 1087.12 294.973C1078.55 279.414 1069.66 264.068 1060.98 248.509C1059.39 245.546 1057.91 242.583 1056.11 239.09C1061.61 235.915 1066.48 232.951 1072.62 229.353C1084.26 249.568 1095.59 269.36 1107.12 289.469C1112.73 288.517 1118.34 287.458 1124.37 286.4V224.167C1125.43 223.637 1126.07 223.108 1126.7 223.002C1143.85 220.78 1143.85 220.78 1143.95 238.243C1143.95 253.272 1144.8 268.301 1144.27 283.225C1143.95 291.903 1150.52 292.115 1155.39 293.703C1156.97 294.232 1160.99 290.422 1162.48 287.776C1170.84 273.593 1178.67 259.199 1186.71 245.017C1198.64 249.533 1201.81 257.118 1196.24 267.772C1190.74 278.144 1184.81 288.305 1179.52 298.889C1178.46 301.111 1178.14 306.086 1179.09 306.509C1182.9 308.52 1184.6 315.611 1191.48 311.589C1198.89 307.25 1206.93 304.075 1214.76 300.371C1222.38 296.772 1229.9 293.385 1238.57 289.363C1241.01 294.232 1243.76 298.889 1245.45 303.969C1245.88 305.239 1243.55 308.308 1241.86 309.261C1228.41 316.035 1214.76 322.491 1200.9 329.159C1209.26 343.341 1215.29 357.947 1213.91 374.669C1213.81 376.574 1215.61 378.903 1217.09 380.49C1232.86 398.377 1236.03 420.603 1225.56 441.877C1223.55 445.899 1223.86 448.016 1227.46 452.143C1241.22 467.702 1253.82 484.424 1266.73 500.829C1269.48 504.216 1271.7 508.026 1274.45 512.048L1275.62 512.26ZM1434.06 1659.23C1430.88 1659.23 1428.77 1659.23 1426.76 1659.23C1240.37 1659.23 1053.89 1659.23 867.504 1659.13C860.624 1659.13 858.613 1661.03 858.613 1668.02C858.931 1728.88 858.719 1789.63 858.825 1850.49C858.825 1853.24 859.248 1855.99 859.46 1859.16H868.245C1053.89 1859.16 1239.53 1859.16 1425.06 1859.38C1432.89 1859.38 1434.69 1857.05 1434.59 1849.64C1434.27 1788.78 1434.48 1728.03 1434.38 1667.17C1434.38 1664.84 1434.16 1662.62 1433.95 1659.23H1434.06ZM1376.48 1393.26H917.883V1595.41H1376.48V1393.26ZM1182.48 474.687C1182.48 474.687 1181.74 473.629 1181.32 473.099C1176.55 475.428 1171.58 477.545 1166.92 480.085C1136.55 496.596 1109.66 517.446 1087.65 544.329C1067.54 568.884 1053.36 596.719 1042.98 626.566C1033.67 653.237 1027.64 680.649 1026.58 708.802C1025.52 738.014 1026.16 767.225 1026.16 796.437C1026.16 883.119 1026.16 969.695 1026.16 1056.38C1026.16 1059.34 1026.16 1062.41 1026.16 1065.37C1037.48 1049.81 1047.85 1034.15 1056.96 1017.85C1059.07 1014.04 1058.44 1007.06 1056.43 1002.72C1052.62 994.25 1049.23 986.1 1049.33 976.575C1049.55 889.681 1049.55 802.787 1049.65 715.894C1049.65 713.142 1049.86 710.39 1049.97 707.956H1069.55V944.294C1082.78 933.921 1094.95 925.666 1105.43 915.717C1114.43 907.25 1120.56 895.82 1120.67 883.119C1120.99 792.309 1120.88 701.394 1120.88 610.584C1120.88 602.858 1118.66 601.164 1110.83 602.117C1108.71 602.329 1105.75 602.434 1104.58 601.27C1100.77 597.354 1097.7 592.909 1094.42 588.781C1124.06 550.362 1153.27 512.683 1182.48 474.899V474.687ZM1373.31 1327.96V1252.39C1370.03 1252.39 1367.49 1252.39 1364.84 1252.39C1330.13 1252.39 1295.3 1252.5 1260.59 1252.5C1149.99 1252.5 1039.39 1252.5 928.784 1252.28C921.905 1252.28 919.576 1253.98 919.788 1261.07C920.212 1280.86 919.894 1300.55 920 1320.34C920 1322.88 920.423 1325.31 920.635 1328.07H1373.41L1373.31 1327.96ZM1174.65 844.594C1174.65 840.572 1174.65 837.185 1174.65 833.798C1174.65 787.97 1174.65 742.142 1175.07 696.313C1175.07 689.328 1172.85 686.047 1166.39 683.93C1156.02 680.649 1148.08 674.193 1144.06 663.609C1143.53 662.233 1142.9 660.857 1142.26 659.376L1140.25 661.069V1188.46C1152.32 1188.46 1163.85 1187.93 1175.28 1188.68C1183.01 1189.1 1184.91 1186.56 1184.91 1179.04C1184.7 1071.09 1184.7 963.133 1184.7 855.177C1184.7 852.108 1184.28 849.039 1184.07 845.758C1180.89 845.334 1178.35 845.017 1174.44 844.594H1174.65ZM1194.86 527.395V538.296C1194.86 631.011 1194.86 723.726 1194.86 816.44C1194.86 823.99 1199.17 828.471 1207.78 829.882C1207.78 826.918 1207.78 824.061 1207.78 821.309C1207.78 799.718 1208.2 778.127 1207.56 756.536C1207.35 748.069 1211.16 747.222 1217.94 747.328C1224.39 747.328 1227.88 747.963 1227.88 756.112C1227.57 807.973 1227.88 859.834 1227.99 911.695C1227.99 915.506 1228.41 920.057 1230.53 922.914C1232.75 926.089 1237.2 929.794 1240.48 929.582C1254.13 928.735 1265.56 940.907 1268.32 953.713C1268.84 955.936 1270.11 958.053 1271.7 961.651C1271.28 952.443 1270.75 945.14 1270.64 937.732C1269.59 889.046 1268.63 840.254 1267.47 791.568C1267.47 788.711 1266.73 784.371 1264.93 783.419C1241.54 771.036 1235.51 748.28 1230.32 725.419C1224.39 699.594 1224.5 673.241 1224.82 646.887C1224.82 644.135 1224.39 641.066 1223.12 638.631C1215.18 624.026 1211.59 608.361 1210.95 591.956C1210.53 579.573 1210.74 567.19 1210.32 554.807C1209.68 534.803 1208.62 514.8 1207.99 494.796C1207.99 492.68 1209.05 489.293 1210.74 488.446C1220.9 483.366 1227.67 487.493 1227.99 498.818C1228.41 510.355 1228.63 521.997 1229.05 533.533C1229.26 538.19 1229.79 542.847 1230.32 549.197C1236.67 544.329 1234.13 535.544 1241.75 533.004C1247.89 530.993 1253.07 526.125 1259.64 521.997C1244.71 502.417 1230.43 483.683 1215.4 463.891C1184.07 504.639 1154.22 543.482 1124.06 582.748C1137.18 587.935 1146.28 596.719 1150.41 608.996C1154.54 621.062 1156.87 633.763 1159.09 646.358C1160.78 656.306 1165.86 663.186 1175.28 664.562V527.077H1194.86V527.395ZM842.208 1615.95V1638.49H1452.37C1452.37 1634.68 1452.37 1631.51 1452.37 1628.44C1452.16 1615.84 1454.8 1615.95 1440.2 1615.95C1245.03 1615.95 1049.86 1615.95 854.697 1615.95H842.208ZM841.891 1372.73H855.332C1049.97 1372.73 1244.61 1372.73 1439.24 1372.73C1454.91 1372.73 1451.84 1373.26 1452.58 1359.71C1453 1351.98 1450.99 1349.23 1442.74 1349.23C1245.24 1349.44 1047.75 1349.44 850.146 1349.44C847.394 1349.44 844.643 1349.87 841.891 1350.08V1372.73ZM1146.28 1231.96C1206.82 1231.96 1267.36 1231.96 1328.01 1231.96C1330.65 1231.96 1333.3 1232.18 1335.84 1231.75C1337.43 1231.54 1340.07 1230.27 1340.18 1229.42C1340.5 1223.18 1340.5 1216.83 1340.07 1210.58C1340.07 1209.84 1337.22 1208.68 1335.52 1208.68C1328.86 1208.47 1322.08 1208.47 1315.31 1208.47C1227.36 1208.47 1139.4 1208.47 1051.45 1208.47C1047.32 1208.47 1043.2 1209.63 1039.07 1209.53C1011.97 1209.21 984.985 1208.68 957.89 1208.57C956.303 1208.57 953.868 1211.22 953.233 1213.12C952.387 1215.77 953.233 1218.95 952.916 1221.7C951.751 1229.64 954.927 1231.96 962.97 1231.96C1024.04 1231.65 1085.11 1231.75 1146.28 1231.75V1231.96ZM1084.69 958.582C1069.55 964.826 1065.53 974.246 1071.35 987.793C1074.1 994.25 1077.59 1000.6 1078.76 1007.37C1081.09 1020.92 1072.73 1031.29 1066.37 1041.98C1057.91 1056.27 1045.42 1068.34 1041.93 1085.38C1040.66 1091.73 1041.61 1098.82 1039.39 1104.85C1032.93 1122.74 1025.84 1140.41 1018.32 1157.88C1013.98 1167.93 1008.48 1177.46 1002.77 1188.57C1013.35 1188.57 1022.03 1188.36 1030.71 1188.57C1036.42 1188.68 1038.96 1186.14 1040.44 1180.63C1047.85 1152.69 1049.44 1124.11 1049.55 1095.43C1049.55 1092.04 1049.55 1088.76 1049.55 1084.95H1068.7C1069.97 1119.99 1068.07 1154.07 1059.39 1188.57C1065.1 1188.57 1070.19 1188.15 1075.05 1188.57C1082.67 1189.42 1084.79 1186.66 1084.79 1178.94C1084.47 1108.13 1084.58 1037.22 1084.58 966.414V958.476L1084.69 958.582ZM1292.98 1188.04C1289.17 1180.1 1285.04 1173.12 1282.29 1165.6C1269.48 1129.72 1264.82 1092.36 1262.71 1054.37C1261.65 1035.74 1263.34 1016.48 1254.66 998.695C1253.39 996.049 1253.82 992.556 1253.39 989.381C1251.8 978.48 1250.64 967.472 1248.42 956.677C1247.89 953.925 1243.76 951.914 1241.33 949.586C1240.59 952.126 1239.1 954.666 1239.1 957.206C1239 1031.4 1239.1 1105.7 1239.1 1179.89C1239.1 1182.43 1239.32 1184.97 1239.53 1187.93H1293.08L1292.98 1188.04ZM1136.02 437.961C1135.7 444.417 1133.48 451.297 1140.78 456.271C1149.56 462.092 1169.89 459.235 1177.08 450.873C1170.73 439.866 1169.67 428.012 1173.59 418.381C1175.39 413.936 1178.46 408.855 1177.61 404.728C1172.32 376.68 1157.5 354.772 1130.94 343.341C1108.92 333.921 1095.9 343.976 1097.7 367.896C1099.18 387.582 1110.3 401.976 1126.07 412.877C1129.56 415.311 1135.17 416.264 1139.51 415.629C1151.36 413.936 1151.26 413.512 1156.55 423.99C1157.29 425.578 1157.82 427.271 1158.77 429.917C1150.83 432.669 1143.53 435.315 1135.91 437.961H1136.02ZM1053.78 358.582C1044.57 336.779 1035.26 315.294 1026.37 293.491C1011.66 257.506 997.474 221.309 982.762 185.218C977.999 173.576 966.251 169.977 953.657 175.904C957.467 199.4 961.383 223.108 965.193 246.816C967.204 244.276 969.109 241.312 968.792 238.666C967.945 230.94 966.675 223.214 964.77 215.699C963.288 209.667 964.558 206.068 970.908 205.01C973.237 204.586 975.671 203.634 977.894 203.951C979.905 204.269 982.868 205.645 983.291 207.232C991.441 235.068 999.273 263.009 1007 291.057C1015.15 320.374 1023.19 349.797 1031.34 379.538C1039.17 372.129 1046.27 365.356 1053.57 358.476L1053.78 358.582ZM1120.46 930.323C1110.19 937.52 1104.05 943.87 1104.27 957.206C1105.11 1030.87 1104.69 1104.53 1104.69 1178.3C1104.69 1181.58 1105.01 1184.87 1105.22 1187.93C1115.38 1188.92 1120.46 1184.83 1120.46 1175.66C1120.46 1126.97 1120.46 1078.29 1120.46 1029.6C1120.46 997.001 1120.46 964.403 1120.46 930.323ZM1205.13 1187.3C1218.15 1190.16 1218.78 1189.73 1218.78 1177.24C1218.78 1101.46 1218.78 1025.68 1218.68 949.903C1218.68 945.458 1217.62 940.378 1215.29 936.673C1209.79 927.889 1207.67 918.681 1207.99 908.309C1208.62 893.385 1208.41 878.356 1208.41 863.327C1208.41 859.94 1207.35 856.553 1206.82 853.061C1206.29 853.061 1205.66 853.272 1205.13 853.272V1187.09V1187.3ZM1243.23 662.445C1244.82 679.697 1245.77 694.832 1247.89 709.755C1250.11 726.372 1253.5 742.882 1263.45 757.065C1270.64 767.225 1283.24 768.284 1290.44 758.441C1300.49 744.893 1305.04 728.912 1307.79 711.237C1304.09 714.094 1301.44 716.211 1298.69 718.116C1284.72 728.065 1266.83 725.737 1256.99 711.978C1253.82 707.532 1252.65 701.499 1251.8 696.102C1251.7 695.255 1258.9 693.562 1262.49 691.868C1267.57 689.434 1269.9 690.704 1271.38 696.313C1273.4 703.934 1279.53 706.368 1286.63 702.346C1294.99 697.583 1298.48 689.328 1301.44 679.908C1278.69 686.259 1262.07 674.722 1243.23 662.339V662.445ZM1308.85 618.734C1290.33 625.19 1274.24 622.438 1259.64 612.383C1245.56 602.752 1234.02 591.11 1235.08 571.635C1233.18 573.54 1232.22 575.022 1231.48 576.61C1231.06 577.562 1230.64 578.515 1230.53 579.573C1228.94 594.708 1231.38 609.631 1237.62 623.179C1245.24 639.69 1259 651.12 1275.3 658.741C1281.65 661.704 1289.8 665.62 1295.83 658.741C1305.25 648.051 1309.06 634.927 1308.85 618.628V618.734ZM1256.04 570.683C1262.6 563.486 1267.15 564.438 1275.09 572.376C1274.14 577.668 1272.97 581.373 1272.87 585.183C1272.23 598.73 1284.09 606.88 1296.57 601.376C1298.48 600.529 1300.6 597.354 1300.6 595.237C1300.07 576.186 1299.11 557.135 1298.27 538.084C1298.06 533.216 1298.27 528.347 1298.27 521.679C1283.34 531.099 1270.11 539.249 1257.1 547.716C1255.72 548.668 1254.56 551.208 1254.56 553.008C1254.66 558.723 1255.4 564.332 1256.04 570.789V570.683ZM1135.06 476.169C1129.24 472.359 1123.95 466.008 1119.08 466.432C1113.9 466.855 1109.03 473.205 1104.37 477.333C1071.88 506.121 1048.17 541.154 1032.19 581.267C1026.16 596.402 1023.19 612.807 1018.75 628.682C1019.49 628.894 1020.23 629.212 1020.97 629.423C1041.19 565.497 1077.17 513.106 1134.96 476.169H1135.06ZM1076.96 371.388C1051.35 374.458 1025.73 423.355 1029.44 443.359C1034.73 433.516 1040.13 422.932 1046.16 412.771C1053.57 400.388 1053.89 400.6 1065.21 409.173C1065.63 409.49 1066.37 409.702 1066.48 410.125C1066.8 412.56 1068.07 415.417 1067.12 417.217C1060.55 430.235 1052.4 442.512 1046.79 455.954C1042.14 467.067 1040.34 479.344 1037.27 490.986C1038.01 491.198 1038.65 491.41 1039.39 491.515C1050.5 458.388 1065.53 427.377 1086.7 400.812C1083.31 390.651 1080.24 381.337 1076.85 371.283L1076.96 371.388ZM1096.54 324.713C1119.4 315.823 1138.13 322.491 1155.6 334.027C1172.64 345.246 1183.12 362.392 1192.85 381.443C1196.77 368.637 1194.55 358.37 1189.78 348.421C1180.15 328.1 1162.69 316.987 1142.37 310.108C1122.47 303.334 1109.45 307.673 1096.54 324.713ZM1099.08 417.746C1081.19 440.713 1069.44 466.326 1059.6 493.632C1060.77 493.315 1061.4 493.315 1061.72 493.103C1078.97 477.227 1096.12 461.245 1113.37 445.37C1116.75 442.3 1117.81 432.563 1114.43 429.706C1109.77 425.684 1104.69 422.085 1099.08 417.852V417.746ZM939.58 130.817H997.156V114.2H939.58V130.817ZM1205.13 397.954C1202.48 403.775 1200.05 408.644 1198.04 413.724C1196.87 416.581 1197.51 420.921 1195.6 422.508C1189.78 427.271 1191.05 432.881 1192.75 438.278C1193.7 441.242 1196.66 443.465 1198.67 446.111C1201.11 443.994 1203.75 441.983 1205.87 439.549C1207.35 437.855 1208.09 435.421 1209.15 433.304C1214.97 421.873 1213.81 408.114 1205.02 397.954H1205.13ZM1055.26 311.06C1057.17 316.035 1058.33 319.421 1059.81 322.808C1063.52 331.17 1067.33 339.531 1071.35 347.68C1071.98 349.056 1074.31 349.586 1075.9 350.538C1076.22 348.739 1076.85 347.045 1076.85 345.246C1076.85 338.261 1076.96 331.17 1076.75 324.184C1076.75 322.491 1076.11 319.845 1074.95 319.316C1068.92 316.458 1062.56 314.13 1055.37 311.166L1055.26 311.06ZM951.116 152.196V152.725C963.182 154.101 975.248 155.477 987.525 156.853V152.196H951.116Z" fill="black"/>
</g>
</svg>
