<svg width="28" height="28" viewBox="0 0 28 28" fill="none" xmlns="http://www.w3.org/2000/svg">
<path fill-rule="evenodd" clip-rule="evenodd" d="M20.125 12.25C20.125 13.2841 19.9213 14.3081 19.5254 15.2636C19.1298 16.219 18.5496 17.0871 17.8185 17.8185C17.0872 18.5496 16.2191 19.1297 15.2636 19.5256C14.3082 19.9213 13.2841 20.125 12.25 20.125C11.2158 20.125 10.1918 19.9213 9.23634 19.5256C8.28091 19.1297 7.41277 18.5496 6.68152 17.8185C5.95024 17.0871 5.37019 16.219 4.97443 15.2636C4.57866 14.3081 4.37498 13.2841 4.37498 12.25C4.37498 10.1614 5.20466 8.15833 6.68152 6.68149C8.15836 5.20463 10.1614 4.37495 12.25 4.37495C14.3386 4.37495 16.3416 5.20463 17.8185 6.68149C19.2953 8.15833 20.125 10.1614 20.125 12.25ZM18.69 20.5449C16.5801 22.1829 13.9254 22.9552 11.2661 22.7046C8.60688 22.4542 6.14308 21.1996 4.37629 19.1964C2.60949 17.1932 1.67254 14.592 1.75616 11.9223C1.83979 9.25255 2.93771 6.71505 4.82639 4.82636C6.7151 2.93768 9.25258 1.83976 11.9223 1.75613C14.592 1.67251 17.1932 2.60946 19.1964 4.37626C21.1997 6.14305 22.4542 8.60685 22.7047 11.2661C22.9553 13.9253 22.183 16.5801 20.545 18.69L25.865 24.01C25.994 24.1302 26.0974 24.2751 26.1691 24.4361C26.2409 24.5971 26.2794 24.7708 26.2825 24.9471C26.2857 25.1233 26.2531 25.2983 26.1872 25.4617C26.1212 25.6252 26.0228 25.7736 25.8982 25.8982C25.7736 26.023 25.6252 26.1211 25.4618 26.1871C25.2983 26.2531 25.1233 26.2857 24.9471 26.2825C24.7709 26.2794 24.5969 26.2409 24.4361 26.1691C24.2751 26.0974 24.1302 25.9939 24.01 25.8649L18.69 20.5449Z" fill="white" fill-opacity="0.6"/>
</svg>
