<svg width="28" height="28" viewBox="0 0 28 28" fill="none" xmlns="http://www.w3.org/2000/svg">
<path fill-rule="evenodd" clip-rule="evenodd" d="M20.125 12.25C20.125 13.2842 19.9213 14.3082 19.5254 15.2636C19.1297 16.2191 18.5496 17.0872 17.8185 17.8185C17.0871 18.5497 16.219 19.1298 15.2636 19.5256C14.3081 19.9213 13.2841 20.125 12.25 20.125C11.2158 20.125 10.1918 19.9213 9.23631 19.5256C8.28088 19.1298 7.41274 18.5497 6.68149 17.8185C5.95021 17.0872 5.37016 16.2191 4.9744 15.2636C4.57863 14.3082 4.37495 13.2842 4.37495 12.25C4.37495 10.1614 5.20463 8.15839 6.68149 6.68155C8.15833 5.20469 10.1614 4.37501 12.25 4.37501C14.3385 4.37501 16.3416 5.20469 17.8185 6.68155C19.2953 8.15839 20.125 10.1614 20.125 12.25ZM18.69 20.545C16.5801 22.183 13.9253 22.9553 11.2661 22.7047C8.60685 22.4543 6.14305 21.1997 4.37626 19.1965C2.60946 17.1933 1.67251 14.592 1.75613 11.9223C1.83976 9.25261 2.93768 6.71511 4.82636 4.82642C6.71507 2.93774 9.25255 1.83982 11.9223 1.75619C14.592 1.67257 17.1932 2.60952 19.1964 4.37632C21.1996 6.14311 22.4542 8.60691 22.7046 11.2662C22.9552 13.9254 22.183 16.5802 20.545 18.69L25.865 24.01C25.9939 24.1302 26.0974 24.2751 26.1691 24.4361C26.2409 24.5971 26.2794 24.7709 26.2825 24.9471C26.2857 25.1234 26.2531 25.2984 26.1871 25.4618C26.1212 25.6253 26.0228 25.7737 25.8982 25.8983C25.7736 26.023 25.6252 26.1212 25.4618 26.1872C25.2983 26.2532 25.1233 26.2857 24.9471 26.2826C24.7709 26.2794 24.5969 26.2409 24.4361 26.1692C24.2751 26.0974 24.1302 25.994 24.01 25.865L18.69 20.545Z" fill="black" fill-opacity="0.6"/>
</svg>
